<?xml version="1.0" encoding="UTF-8"?>
<svg id="Capa_1" data-name="Capa 1" xmlns="http://www.w3.org/2000/svg" viewBox="0 0 751.75 238.37">
  <defs>
    <style>
      .cls-1 {
        fill: #1d1d1b;
      }
    </style>
  </defs>
  <path class="cls-1" d="m251.13,237.84c-8.46,0-15.71-1.61-21.75-4.83-6.04-3.22-10.57-7.65-13.6-13.29-3.02-5.64-4.53-12.09-4.53-19.34,0-8.86,2.01-16.06,6.04-21.6,4.03-5.54,9.21-10.02,15.56-13.45,6.34-3.42,13.09-6.29,20.24-8.61,7.15-2.31,13.9-4.53,20.24-6.65,6.35-2.12,11.58-4.58,15.71-7.4,4.13-2.82,6.19-6.54,6.19-11.18v-20.55c0-7.25-1.16-13.04-3.48-17.37-2.32-4.33-5.44-7.4-9.37-9.21-3.93-1.81-8.61-2.72-14.05-2.72-4.63,0-9.57.66-14.8,1.97-5.24,1.31-9.37,3.88-12.39,7.7,4.43,1.21,8.11,3.58,11.03,7.1,2.92,3.53,4.38,7.91,4.38,13.14,0,5.64-1.86,10.08-5.59,13.29-3.73,3.22-8.41,4.83-14.05,4.83-6.25,0-10.88-1.96-13.9-5.89-3.02-3.93-4.53-8.51-4.53-13.75s1.36-9.87,4.08-13.29c2.72-3.42,6.29-6.65,10.73-9.67,4.83-3.22,11.03-5.94,18.58-8.16,7.55-2.22,15.96-3.32,25.23-3.32,8.66,0,16.17.96,22.51,2.87,6.35,1.92,11.63,4.99,15.86,9.22,5.03,4.63,8.35,10.42,9.97,17.37,1.61,6.95,2.42,15.36,2.42,25.23v83.39c0,5.04.65,8.61,1.97,10.73,1.31,2.11,3.3,3.81,7.9,5.45,1.45.52,5.15,1.84,11.63,1.97v6.02h-26.63c-6.45,0-11.69-1.01-15.71-3.02-4.03-2.01-7-4.93-8.91-8.76-1.92-3.82-2.87-8.56-2.87-14.2-5.24,8.46-11.48,14.91-18.73,19.34-7.25,4.43-15.71,6.65-25.38,6.65Zm14.5-14.5c5.64,0,10.92-1.61,15.86-4.83,4.93-3.22,9.52-8.05,13.75-14.5v-60.12c-2.22,3.22-5.44,5.99-9.67,8.31-4.23,2.32-8.76,4.68-13.59,7.1-4.84,2.42-9.42,5.19-13.75,8.31-4.33,3.12-7.91,7.1-10.73,11.93-2.82,4.83-4.23,10.98-4.23,18.43,0,7.86,2.01,14.05,6.04,18.58,4.03,4.53,9.47,6.8,16.31,6.8Z"/>
  <path class="cls-1" d="m403.76,7.79v203.22c0,8.24,1.66,13.82,4.99,16.76,3.32,2.94,8.91,4.04,16.77,4.04v6.02c-3.77,0-8.06,0-16.1,0h-60.03v-6.02c7.85,0,13.44-1.1,16.77-4.04,3.32-2.94,4.99-8.53,4.99-16.76V43.08c0-8.82-1.51-15.34-4.53-19.56-2.27-3.16-6.06-5.14-11.39-5.93-3.33-.49-5.83-3.19-5.83-6.47v-.1c6.44.59,12.69.88,18.73.88,6.65,0,12.99-.34,19.04-1.03,6.04-.68,11.58-1.71,16.62-3.09Z"/>
  <path class="cls-1" d="m479.9,79.14v131.13c0,8.46,1.66,14.2,4.99,17.22,2.9,2.63,7.3,3.96,13.64,4.33,1.8.11,2.87.35,3.76-.85l1.82-3.33-2.46,10.2h-37.77c-7.25,0-14.14,0-21.75,0s-12.99.05-16.62,0v-6.02c7.86,0,13.45-1.31,16.77-4.33,3.32-3.02,4.99-8.76,4.99-17.22v-94.87c0-9.06-1.51-15.76-4.53-20.09-2.26-3.25-6.06-5.28-11.39-6.09-3.33-.51-5.84-3.28-5.84-6.65v-.1c6.44.6,12.69.91,18.73.91,6.85,0,13.24-.35,19.19-1.06,5.94-.7,11.43-1.76,16.47-3.17Zm-18.13-72.82c6.24,0,11.48,1.96,15.71,5.89,4.23,3.93,6.34,8.81,6.34,14.65s-2.12,10.73-6.34,14.66c-4.23,3.93-9.47,5.89-15.71,5.89s-11.48-1.96-15.71-5.89c-4.23-3.93-6.34-8.81-6.34-14.66s2.11-10.73,6.34-14.65c4.23-3.93,9.47-5.89,15.71-5.89Z"/>
  <path class="cls-1" d="m620.89,78.94l-83.39,152.88h27.19c8.06,0,15.21-1.61,21.45-4.83,6.24-3.22,11.38-8.56,15.41-16.01,2.89-5.35,8.7-19.66,13.35-33.67,3.11-9.38,4.7-19.19,4.76-29.07h0s12.56-23.24,12.56-23.24c0,5.25-1.71,57.74-4.66,74.37-.27,1.55-2.34-4.66-3.68-8.92-.3-.96-1.64-.87-1.88.11-3.39,14.11.48-1.44-5.96,24.92-2,8.17-9.58,22.37-21.85,22.37h-65.32c-10.65,0-20.59,0-30.36.02l83.39-152.88h-27.8c-8.66,0-16.12,1.66-22.36,4.99-6.25,3.32-11.13,8.66-14.66,16.01-2.88,6.02-4.93,13.68-6.12,23-.47,3.69-3.6,6.46-7.32,6.46h0c0-13.7-.1-24.97-.3-33.84-.2-8.86-.51-16.31-.91-22.36,8.86.41,18.13.71,27.8.91,9.67.2,19.34.3,29.01.3s20.39-.15,30.97-.45c10.57-.3,20.8-.65,30.67-1.06Z"/>
  <path class="cls-1" d="m685.38,76.64c12.72,0,24.02,2.78,33.9,8.32,9.87,5.55,17.75,14.27,23.64,26.16,5.88,11.89,8.83,27.45,8.83,46.67s-2.95,34.74-8.83,46.53c-5.89,11.79-13.77,20.41-23.64,25.86-9.88,5.45-21.18,8.18-33.9,8.18s-23.83-2.73-33.9-8.18c-10.07-5.45-18-14.07-23.79-25.86-5.79-11.79-8.69-27.3-8.69-46.53s2.89-34.78,8.69-46.67c5.79-11.89,13.72-20.61,23.79-26.16,10.06-5.55,21.36-8.32,33.9-8.32Zm0,5.95c-9.88,0-17.95,5.9-24.21,17.69-6.27,11.79-9.4,30.97-9.4,57.52s3.13,45.63,9.4,57.23c6.26,11.6,14.34,17.39,24.21,17.39s17.7-5.8,24.07-17.39c6.36-11.59,9.54-30.66,9.54-57.23s-3.18-45.73-9.54-57.52c-6.37-11.79-14.39-17.69-24.07-17.69Z"/>
  <path class="cls-1" d="m114.21,0c14.2,0,25.86,2.1,35.01,6.29,9.14,4.19,17.26,9.09,24.36,14.68,4.3,3.23,7.58,3.6,9.84,1.13,2.26-2.47,3.82-8.33,4.68-17.58h7.42c-.43,8.39-.76,18.55-.97,30.49-.22,11.94-.32,27.8-.32,47.59h-7.42c-1.08-9.89-2.48-18.33-4.19-25.33-1.72-6.99-4.09-13.17-7.1-18.55-3.01-5.37-7.32-10.21-12.9-14.52-5.38-5.37-11.62-9.36-18.71-11.94-7.1-2.58-14.52-3.87-22.26-3.87-11.61,0-21.51,3.06-29.68,9.19-8.18,6.13-14.79,14.47-19.84,25-5.06,10.54-8.77,22.42-11.13,35.65-2.37,13.23-3.55,26.94-3.55,41.14s1.24,28.23,3.71,41.46c2.47,13.23,6.34,25.01,11.62,35.33,5.27,10.32,12.1,18.5,20.49,24.52,8.39,6.02,18.28,9.03,29.68,9.03,7.1,0,14.25-1.34,21.46-4.03,7.2-2.69,13.39-6.61,18.55-11.78,8.39-6.45,14.09-14.46,17.1-24.04,3.01-9.57,5.27-22.31,6.78-38.23h7.42c0,20.44.11,36.94.32,49.52.21,12.58.53,23.18.97,31.78h-7.42c-.86-9.24-2.31-15.05-4.36-17.42-2.05-2.36-5.44-2.04-10.16.97-7.96,5.6-16.4,10.49-25.33,14.68-8.93,4.2-20.38,6.29-34.36,6.29-22.8,0-42.75-4.62-59.85-13.87-17.1-9.24-30.38-22.58-39.85-40.01C4.73,166.16,0,145.19,0,120.67s4.89-45.17,14.68-63.24c9.78-18.07,23.23-32.15,40.33-42.26C72.11,5.05,91.84,0,114.21,0Z"/>
</svg>